<?xml version="1.0" encoding="UTF-8"?>
<svg version="1.1" xmlns="http://www.w3.org/2000/svg" width="512" height="512">
<path d="M0 0 C1.94084473 0.02199463 1.94084473 0.02199463 3.92089844 0.04443359 C56.09104016 1.05289361 107.46944448 20.63137255 148.5625 52.4375 C149.449375 53.11167969 150.33625 53.78585938 151.25 54.48046875 C166.83357275 66.59270077 181.44397311 80.878451 193.5625 96.4375 C194.70912109 97.84128906 194.70912109 97.84128906 195.87890625 99.2734375 C230.50752637 142.51752491 249.00115997 198.01689907 248.87817383 253.16479492 C248.8750221 256.10438487 248.89854926 259.0429558 248.92382812 261.98242188 C248.96848737 275.35556192 247.76301542 288.25166711 245.5625 301.4375 C245.28031616 303.14305054 245.28031616 303.14305054 244.99243164 304.88305664 C237.96696967 343.99454746 220.98415906 381.17702178 196.5625 412.4375 C195.80324219 413.40945313 195.04398437 414.38140625 194.26171875 415.3828125 C181.92736402 430.76241644 168.12645499 445.31515196 152.5625 457.4375 C151.62664062 458.20191406 150.69078125 458.96632813 149.7265625 459.75390625 C117.77378299 485.3407721 78.60738322 501.85051276 38.5625 509.4375 C37.75312988 509.60121094 36.94375977 509.76492188 36.10986328 509.93359375 C6.06860013 515.80477137 -28.5740176 514.71012909 -58.4375 508.4375 C-59.96044678 508.12401611 -59.96044678 508.12401611 -61.51416016 507.80419922 C-98.65796555 499.91195344 -133.52195445 483.80845578 -163.4375 460.4375 C-164.40945312 459.67824219 -165.38140625 458.91898437 -166.3828125 458.13671875 C-181.76241644 445.80236402 -196.31515196 432.00145499 -208.4375 416.4375 C-209.58412109 415.03371094 -209.58412109 415.03371094 -210.75390625 413.6015625 C-236.3407721 381.64878299 -252.85051276 342.48238322 -260.4375 302.4375 C-260.60121094 301.62812988 -260.76492188 300.81875977 -260.93359375 299.98486328 C-266.80003097 269.96785549 -265.74526278 235.27421916 -259.4375 205.4375 C-259.21787598 204.39561523 -258.99825195 203.35373047 -258.77197266 202.28027344 C-248.94357729 157.22128889 -226.65567112 108.72871678 -191.421875 77.66015625 C-187.72704709 75.38361858 -183.69657672 75.33233761 -179.4375 75.4375 C-174.2224911 76.97635508 -170.73978138 79.09735876 -167.4375 83.4375 C-165.06917778 89.33575009 -165.07615858 94.47649161 -167.4375 100.4375 C-169.03507388 102.90196374 -170.93121757 104.98707092 -172.9375 107.125 C-174.03361864 108.35205488 -175.127329 109.58126487 -176.21875 110.8125 C-176.76402344 111.42222656 -177.30929688 112.03195313 -177.87109375 112.66015625 C-190.87676401 127.41721353 -201.29975507 144.57673516 -209.4375 162.4375 C-209.7670166 163.15309082 -210.0965332 163.86868164 -210.43603516 164.60595703 C-235.12429867 218.81151312 -236.4525755 280.37293772 -215.6875 336.0625 C-204.81950174 364.12722946 -188.80872199 389.34831662 -167.86523438 410.96289062 C-166.47699414 412.3967092 -165.1054068 413.84659281 -163.734375 415.296875 C-156.83166121 422.44178928 -149.3709818 428.5031599 -141.4375 434.4375 C-140.87691895 434.86417969 -140.31633789 435.29085938 -139.73876953 435.73046875 C-130.18266384 442.98473876 -120.07977007 448.91722569 -109.4375 454.4375 C-108.68871582 454.82824707 -107.93993164 455.21899414 -107.16845703 455.62158203 C-70.82324594 474.34820647 -29.09355357 482.04766413 11.5625 478.4375 C10.56959961 477.82829712 10.56959961 477.82829712 9.55664062 477.20678711 C-2.46800228 469.82586599 -14.48184072 462.42986036 -26.4375 454.9375 C-34.74646793 449.73066575 -43.08136205 444.56828779 -51.4375 439.4375 C-59.7936386 434.30671181 -68.12849065 429.14426876 -76.4375 423.9375 C-85.14337315 418.48258642 -93.87417414 413.06987919 -102.625 407.6875 C-103.73037109 407.00751953 -104.83574219 406.32753906 -105.97460938 405.62695312 C-110.20360089 403.02822047 -110.20360089 403.02822047 -114.4375 400.4375 C-115.31027588 399.88586182 -116.18305176 399.33422363 -117.08227539 398.76586914 C-120.001824 397.11921588 -122.36184066 396.92623726 -125.6875 396.625 C-133.3648836 395.54062379 -138.25799256 393.14472652 -143.3203125 387.2421875 C-147.19534504 381.63690787 -148.09248479 376.85057896 -148.0390625 370.1015625 C-147.28036699 366.74162523 -146.1603187 365.50607251 -143.4375 363.4375 C-140.68976149 362.70763196 -138.21767911 362.89292883 -135.4375 363.4375 C-131.28371056 366.01958533 -130.41692337 369.92213017 -129.1484375 374.4140625 C-128.53399114 376.62949624 -128.53399114 376.62949624 -126.4375 378.4375 C-121.50544353 378.99707076 -121.50544353 378.99707076 -117.24462891 376.79882812 C-114.93803722 373.78486503 -114.92698645 372.04971201 -114.8984375 368.28125 C-114.87523437 367.09402344 -114.85203125 365.90679687 -114.828125 364.68359375 C-114.82296875 363.44738281 -114.8178125 362.21117187 -114.8125 360.9375 C-114.78697323 358.48948233 -114.75346139 356.04153141 -114.7109375 353.59375 C-114.70497559 352.50900391 -114.69901367 351.42425781 -114.69287109 350.30664062 C-114.43474122 347.40650465 -114.11253885 345.80179246 -112.4375 343.4375 C-107.85509944 340.30371323 -102.33149964 341.06910248 -97 341.0625 C-95.96294922 341.03800781 -94.92589844 341.01351563 -93.85742188 340.98828125 C-86.23417428 340.95890457 -86.23417428 340.95890457 -82.27734375 343.3359375 C-79.2673032 346.77415792 -79.29880975 348.89325833 -79.2265625 353.3984375 C-79.19820312 354.59210938 -79.16984375 355.78578125 -79.140625 357.015625 C-79.08870542 359.53891672 -79.04438584 362.0623767 -79.0078125 364.5859375 C-78.976875 365.7821875 -78.9459375 366.9784375 -78.9140625 368.2109375 C-78.89424316 369.30841309 -78.87442383 370.40588867 -78.85400391 371.53662109 C-78.39482894 374.73469667 -77.66554161 376.13562332 -75.4375 378.4375 C-73.50324514 379.06473208 -73.50324514 379.06473208 -71.4375 378.9375 C-70.756875 378.9478125 -70.07625 378.958125 -69.375 378.96875 C-67.30647212 378.56226901 -67.30647212 378.56226901 -65.72265625 376.84375 C-64.01296433 373.64262471 -63.99367401 371.051315 -63.875 367.4375 C-63.60044643 359.5836039 -63.60044643 359.5836039 -61.4375 356.4375 C-58.35549122 354.38282748 -57.7124288 354.18575194 -54.2313385 354.17007446 C-52.9464579 354.15727951 -52.9464579 354.15727951 -51.63562012 354.14422607 C-50.69891479 354.14513245 -49.76220947 354.14603882 -48.79711914 354.14697266 C-47.80824203 354.14025543 -46.81936493 354.13353821 -45.80052185 354.12661743 C-42.52451585 354.10758545 -39.24871412 354.10371073 -35.97265625 354.1015625 C-33.69966039 354.09513865 -31.42666536 354.0884106 -29.15367126 354.08139038 C-24.38636355 354.06940491 -19.61912837 354.06571091 -14.85180664 354.06689453 C-8.7370247 354.06709789 -2.62270663 354.0397832 3.49196529 354.00535011 C8.18707932 353.9831361 12.88208069 353.97905529 17.5772419 353.98011398 C19.83194135 353.97775021 22.08664356 353.96888329 24.34129143 353.95344925 C27.49210182 353.93389903 30.64189862 353.93958428 33.79272461 353.95166016 C34.7274057 353.94042114 35.66208679 353.92918213 36.62509155 353.91760254 C42.94978687 353.97934014 42.94978687 353.97934014 46.11061096 356.34286499 C49.33160889 360.98978693 48.86608041 365.51197452 49.0859375 371.0546875 C49.57799384 374.54748089 49.99438166 376.05700675 52.5625 378.4375 C54.49675486 379.06473208 54.49675486 379.06473208 56.5625 378.9375 C57.243125 378.9478125 57.92375 378.958125 58.625 378.96875 C61.43571172 378.19807098 62.08329305 376.91606668 63.5625 374.4375 C64.00090839 371.52359023 64.00090839 371.52359023 63.93359375 368.31640625 C63.95099609 367.13369141 63.96839844 365.95097656 63.98632812 364.73242188 C63.99542836 362.24805808 64.00064899 359.76367699 64.00195312 357.27929688 C64.02064453 356.09529297 64.03933594 354.91128906 64.05859375 353.69140625 C64.06044678 352.61189697 64.0622998 351.5323877 64.06420898 350.42016602 C64.67729176 346.75038049 66.00585531 345.089553 68.5625 342.4375 C72.53686418 340.45031791 77.56800926 341.25265139 81.9375 341.25 C82.99195313 341.23775391 84.04640625 341.22550781 85.1328125 341.21289062 C86.14859375 341.21095703 87.164375 341.20902344 88.2109375 341.20703125 C89.14083496 341.20292236 90.07073242 341.19881348 91.02880859 341.19458008 C93.75930209 341.45636858 95.30844406 341.88203543 97.5625 343.4375 C99.86677616 346.68995158 99.8144694 349.6877156 99.8359375 353.59375 C99.866875 355.37458984 99.866875 355.37458984 99.8984375 357.19140625 C99.92447844 359.68873284 99.94270815 362.18615311 99.953125 364.68359375 C99.97632813 365.87082031 99.99953125 367.05804688 100.0234375 368.28125 C100.03165527 369.36599609 100.03987305 370.45074219 100.04833984 371.56835938 C100.6830944 375.11044655 101.71092731 376.29770733 104.5625 378.4375 C109.25149019 379.03162097 109.25149019 379.03162097 113.4375 377.1875 C115.42261595 374.09954186 115.68747386 370.97607316 115.69113445 367.36728001 C115.6943589 366.56121832 115.69758335 365.75515664 115.7009055 364.92466885 C115.6993569 364.0448127 115.6978083 363.16495656 115.69621277 362.25843811 C115.69847833 361.3193312 115.70074388 360.38022428 115.70307809 359.41265959 C115.70942049 356.25824827 115.70858857 353.10387989 115.70776367 349.94946289 C115.71075498 347.69100387 115.71415745 345.43254536 115.71794128 343.17408752 C115.72678764 337.0336859 115.72911965 330.8932982 115.72975707 324.75289083 C115.73070567 319.63089838 115.73438335 314.5089092 115.73792917 309.38691801 C115.74561038 297.9962131 115.74859756 286.60551683 115.74792381 275.2148102 C115.74788386 274.53137645 115.7478439 273.84794269 115.74780273 273.14379883 C115.74776185 272.45953099 115.74772097 271.77526315 115.74767885 271.07025992 C115.74727228 259.97731807 115.75684485 248.88441014 115.7709411 237.7914781 C115.78530013 226.40192883 115.79202836 215.01240125 115.79134732 203.62284082 C115.791092 197.2281956 115.79396235 190.83358879 115.80452538 184.43895149 C115.81418548 178.42667573 115.81429989 172.41447525 115.80700874 166.40219688 C115.80596035 164.19347652 115.80834083 161.98475151 115.8143692 159.77603912 C115.82205595 156.76511859 115.81746629 153.75446019 115.80973816 150.74354553 C115.8174535 149.4271074 115.8174535 149.4271074 115.82532471 148.08407456 C115.79451012 142.66552156 115.58140429 138.45640429 111.5625 134.4375 C106.63044353 133.87792924 106.63044353 133.87792924 102.36962891 136.07617188 C100.06303722 139.09013497 100.05198645 140.82528799 100.0234375 144.59375 C99.98863281 146.37458984 99.98863281 146.37458984 99.953125 148.19140625 C99.94796875 149.42761719 99.9428125 150.66382813 99.9375 151.9375 C99.91197323 154.38551767 99.87846139 156.83346859 99.8359375 159.28125 C99.82997559 160.36599609 99.82401367 161.45074219 99.81787109 162.56835938 C99.55974122 165.46849535 99.23753885 167.07320754 97.5625 169.4375 C92.98009944 172.57128677 87.45649964 171.80589752 82.125 171.8125 C81.08794922 171.83699219 80.05089844 171.86148438 78.98242188 171.88671875 C71.3861164 171.9159916 71.3861164 171.9159916 67.40234375 169.6015625 C64.40625002 166.07749472 64.42634181 163.0600602 64.3515625 158.59765625 C64.32320313 157.45232422 64.29484375 156.30699219 64.265625 155.12695312 C64.21362913 152.71304466 64.16933189 150.29895783 64.1328125 147.88476562 C64.101875 146.73814453 64.0709375 145.59152344 64.0390625 144.41015625 C64.01924316 143.36093994 63.99942383 142.31172363 63.97900391 141.23071289 C63.51248101 138.10205611 62.73419438 136.70281912 60.5625 134.4375 C58.62824514 133.81026792 58.62824514 133.81026792 56.5625 133.9375 C55.881875 133.9271875 55.20125 133.916875 54.5 133.90625 C52.43147212 134.31273099 52.43147212 134.31273099 50.84765625 136.03125 C49.13796433 139.23237529 49.11867401 141.823685 49 145.4375 C48.72544643 153.2913961 48.72544643 153.2913961 46.5625 156.4375 C43.48049122 158.49217252 42.8374288 158.68924806 39.3563385 158.70492554 C38.0714579 158.71772049 38.0714579 158.71772049 36.76062012 158.73077393 C35.82391479 158.72986755 34.88720947 158.72896118 33.92211914 158.72802734 C32.93324203 158.73474457 31.94436493 158.74146179 30.92552185 158.74838257 C27.64951585 158.76741455 24.37371412 158.77128927 21.09765625 158.7734375 C18.82466039 158.77986135 16.55166536 158.7865894 14.27867126 158.79360962 C9.51136355 158.80559509 4.74412837 158.80928909 -0.02319336 158.80810547 C-6.1379753 158.80790211 -12.25229337 158.8352168 -18.36696529 158.86964989 C-23.06207932 158.8918639 -27.75708069 158.89594471 -32.4522419 158.89488602 C-34.70694135 158.89724979 -36.96164356 158.90611671 -39.21629143 158.92155075 C-42.36710182 158.94110097 -45.51689862 158.93541572 -48.66772461 158.92333984 C-50.06974625 158.94019836 -50.06974625 158.94019836 -51.50009155 158.95739746 C-57.82478687 158.89565986 -57.82478687 158.89565986 -60.98561096 156.53213501 C-64.20660889 151.88521307 -63.74108041 147.36302548 -63.9609375 141.8203125 C-64.45299384 138.32751911 -64.86938166 136.81799325 -67.4375 134.4375 C-69.37175486 133.81026792 -69.37175486 133.81026792 -71.4375 133.9375 C-72.118125 133.9271875 -72.79875 133.916875 -73.5 133.90625 C-76.31071172 134.67692902 -76.95829305 135.95893332 -78.4375 138.4375 C-78.87590839 141.35140977 -78.87590839 141.35140977 -78.80859375 144.55859375 C-78.83469727 146.33266602 -78.83469727 146.33266602 -78.86132812 148.14257812 C-78.87042836 150.62694192 -78.87564899 153.11132301 -78.87695312 155.59570312 C-78.89564453 156.77970703 -78.91433594 157.96371094 -78.93359375 159.18359375 C-78.93544678 160.26310303 -78.9372998 161.3426123 -78.93920898 162.45483398 C-79.55229176 166.12461951 -80.88085531 167.785447 -83.4375 170.4375 C-87.41186418 172.42468209 -92.44300926 171.62234861 -96.8125 171.625 C-97.86695313 171.63724609 -98.92140625 171.64949219 -100.0078125 171.66210938 C-101.02359375 171.66404297 -102.039375 171.66597656 -103.0859375 171.66796875 C-104.01583496 171.67207764 -104.94573242 171.67618652 -105.90380859 171.68041992 C-108.63430209 171.41863142 -110.18344406 170.99296457 -112.4375 169.4375 C-114.74177616 166.18504842 -114.6894694 163.1872844 -114.7109375 159.28125 C-114.741875 157.50041016 -114.741875 157.50041016 -114.7734375 155.68359375 C-114.79947844 153.18626716 -114.81770815 150.68884689 -114.828125 148.19140625 C-114.85132813 147.00417969 -114.87453125 145.81695312 -114.8984375 144.59375 C-114.90665527 143.50900391 -114.91487305 142.42425781 -114.92333984 141.30664062 C-115.55405371 137.7871015 -116.67120093 136.62944987 -119.4375 134.4375 C-121.6698145 133.51954894 -121.6698145 133.51954894 -124 133 C-127.1153856 132.04023541 -128.26884425 131.61607668 -130.5625 129.1875 C-131.73406745 125.50543086 -131.46766672 123.14610017 -130.4375 119.4375 C-127.47490405 116.55515496 -125.26786066 116.00582909 -121.1875 116 C-114.66013533 116.21700016 -110.21975402 117.75601172 -105.49609375 122.30859375 C-102.33995084 125.7941879 -99.78550886 129.35937934 -97.4375 133.4375 C-96.7775 133.7675 -96.1175 134.0975 -95.4375 134.4375 C-95.39625 133.7775 -95.355 133.1175 -95.3125 132.4375 C-93.48335081 126.16613136 -89.561207 121.69869417 -83.9375 118.4375 C-77.04025269 115.36395324 -69.18495715 115.04075204 -61.94140625 117.171875 C-56.11882683 119.857526 -52.35369458 124.11274013 -48.75 129.3125 C-44.34123882 135.14594006 -39.32425925 139.71366817 -31.95574951 141.08590698 C-27.88927391 141.34040834 -23.87623124 141.38298011 -19.8046875 141.33984375 C-18.31680123 141.34924594 -16.8289315 141.36171424 -15.34109497 141.37709045 C-11.45774863 141.40910938 -7.57559174 141.39995093 -3.69219971 141.38171387 C0.28345397 141.37049732 4.25881262 141.39891564 8.234375 141.42382812 C16.0106586 141.46680191 23.78611516 141.46620275 31.5625 141.4375 C31.54574219 140.33736572 31.52898437 139.23723145 31.51171875 138.10375977 C31.59659259 131.97611334 34.12099605 126.83470247 38.5 122.53515625 C46.43978524 116.38483019 53.62765247 115.52718026 63.5625 116.4375 C72.42189374 118.98251218 77.39982838 126.28782075 82.5625 133.4375 C82.91441406 132.85742188 83.26632812 132.27734375 83.62890625 131.6796875 C88.0083862 124.75027536 92.53302531 119.01342974 100.5625 116.4375 C109.41816119 115.41028655 117.32751623 115.87418531 124.5625 121.4375 C126.84590654 123.93765374 128.68779275 126.62543912 130.5625 129.4375 C135.04280031 134.68585179 140.75413758 137.8456789 146.5625 141.4375 C148.58520825 142.74710869 150.60590259 144.05983109 152.625 145.375 C162.72741949 151.90575367 173.02292754 158.13527075 183.27783203 164.42236328 C188.70970722 167.754807 194.13605198 171.09622771 199.5625 174.4375 C190.71885866 151.16302986 177.8067955 130.2404208 161.5625 111.4375 C160.85867188 110.6228125 160.15484375 109.808125 159.4296875 108.96875 C149.34512453 97.54680772 138.77006016 87.52594787 126.5625 78.4375 C125.99273437 78.00695312 125.42296875 77.57640625 124.8359375 77.1328125 C115.86316329 70.37250316 106.52931432 64.61588637 96.5625 59.4375 C95.38905029 58.82624268 95.38905029 58.82624268 94.19189453 58.20263672 C66.94069391 44.19712547 37.37797906 35.85166275 6.78515625 34.01953125 C5.57625732 33.94307373 4.3673584 33.86661621 3.12182617 33.7878418 C0.70763707 33.64018448 -1.7076643 33.50950858 -4.1237793 33.39770508 C-12.2384365 32.91238289 -16.15882311 31.88873883 -21.8125 25.9375 C-24.21053575 20.77249991 -24.19131535 16.0372712 -23.4375 10.4375 C-18.48109532 -0.23783316 -10.5592281 -0.19017008 0 0 Z " fill="#000000" transform="translate(263.4375,-0.4375)"/>
<path d="M0 0 C0.82285995 -0.00708481 1.64571991 -0.01416962 2.49351501 -0.02146912 C3.38765106 -0.0189917 4.28178711 -0.01651428 5.20301819 -0.01396179 C6.15142075 -0.01907272 7.0998233 -0.02418365 8.07696533 -0.02944946 C11.21287847 -0.04335265 14.34857202 -0.04238816 17.48451233 -0.04008484 C19.6640023 -0.04397129 21.84349151 -0.04830586 24.02297974 -0.05307007 C28.59180659 -0.0605338 33.16055617 -0.06023982 37.72938538 -0.05497742 C43.58501987 -0.04918187 49.44033816 -0.06611527 55.29592037 -0.08932209 C59.797199 -0.10405162 64.29840133 -0.1049322 68.79969978 -0.10181236 C70.95866586 -0.10232594 73.11763617 -0.10757052 75.2765789 -0.11762428 C78.29523666 -0.12995636 81.31327662 -0.12321623 84.33192444 -0.11161804 C85.22403625 -0.11926178 86.11614807 -0.12690552 87.03529358 -0.13478088 C91.75034879 -0.09472556 95.082024 0.07273969 98.83216858 3.26069641 C101.09679588 6.4423149 101.08986019 9.30638631 101.10682678 13.14326477 C101.1163588 14.32806931 101.12589081 15.51287384 101.13571167 16.73358154 C101.13480026 18.00967789 101.13388885 19.28577423 101.13294983 20.60054016 C101.13723495 21.9147847 101.14152008 23.22902924 101.14593506 24.58309937 C101.15338829 27.36296119 101.15311258 30.142696 101.14784241 32.92256165 C101.14204901 36.47797769 101.15897926 40.03287257 101.18218708 43.58820248 C101.20049573 46.98816999 101.19673855 50.38802364 101.19544983 53.78804016 C101.20465958 55.06211227 101.21386932 56.33618439 101.22335815 57.64886475 C101.21712936 58.83682144 101.21090057 60.02477814 101.20448303 61.24873352 C101.20511246 62.2914592 101.20574188 63.33418488 101.20639038 64.4085083 C100.77373141 67.70608412 99.78669627 69.59228972 97.83216858 72.26069641 C95.55224352 73.40065894 94.27966069 73.39333812 91.7462616 73.40786743 C90.89104919 73.41502274 90.03583679 73.42217804 89.15470886 73.42955017 C88.21440826 73.43223907 87.27410767 73.43492798 86.30531311 73.43769836 C85.31658203 73.44426956 84.32785095 73.45084076 83.30915833 73.45761108 C80.02776521 73.47736914 76.74641786 73.48901119 73.46498108 73.49897766 C72.34648647 73.50305319 71.22799187 73.50712872 70.07560349 73.51132774 C64.15770908 73.53219741 58.23983794 73.54649626 52.32191467 73.55586243 C46.19928479 73.56693942 40.07701709 73.6013519 33.95451546 73.64103413 C29.255125 73.66713387 24.55582178 73.67554827 19.8563652 73.67914391 C17.59886601 73.68402567 15.34137111 73.69568452 13.08394241 73.7141819 C9.92827073 73.73843569 6.77354875 73.73763352 3.61781311 73.73066711 C2.68156097 73.74347717 1.74530884 73.75628723 0.78068542 73.76948547 C-5.55519959 73.71837887 -5.55519959 73.71837887 -8.7169342 71.35632324 C-11.13295914 67.8666986 -11.30134619 65.83756325 -11.32896423 61.60517883 C-11.33857178 60.42022324 -11.34817932 59.23526764 -11.358078 58.0144043 C-11.36232788 56.72798538 -11.36657776 55.44156647 -11.37095642 54.11616516 C-11.37665649 52.79909073 -11.38235657 51.4820163 -11.38822937 50.12503052 C-11.39873967 47.33325311 -11.4045818 44.54150449 -11.4080658 41.74971008 C-11.41354377 38.17857749 -11.43755619 34.60782748 -11.46603775 31.03681469 C-11.48918674 27.62577221 -11.49111561 24.21478213 -11.49595642 20.80366516 C-11.50830322 19.52331894 -11.52065002 18.24297272 -11.53337097 16.92382812 C-11.53036987 15.72941605 -11.52736877 14.53500397 -11.52427673 13.30439758 C-11.52792236 12.2556395 -11.53156799 11.20688141 -11.5353241 10.12634277 C-11.10422789 6.76472669 -10.2276309 4.93990198 -8.16783142 2.26069641 C-5.36324598 0.55416511 -3.26340419 0.00940253 0 0 Z " fill="#000000" transform="translate(211.16783142089844,263.7393035888672)"/>
<path d="M0 0 C1.2828186 -0.01073296 1.2828186 -0.01073296 2.59155273 -0.02168274 C3.53185333 -0.02437164 4.47215393 -0.02706055 5.44094849 -0.02983093 C6.42967957 -0.03640213 7.41841064 -0.04297333 8.43710327 -0.04974365 C11.71849639 -0.0695017 14.99984373 -0.08114375 18.28128052 -0.09111023 C19.39977512 -0.09518576 20.51826973 -0.09926128 21.67065811 -0.10346031 C27.58855252 -0.12432998 33.50642366 -0.13862883 39.42434692 -0.147995 C45.54697681 -0.15907199 51.6692445 -0.19348447 57.79174614 -0.23316669 C62.4911366 -0.25926643 67.19043982 -0.26768084 71.88989639 -0.27127647 C74.14739559 -0.27615824 76.40489049 -0.28781709 78.66231918 -0.30631447 C81.81799087 -0.33056826 84.97271284 -0.32976609 88.12844849 -0.32279968 C89.06470062 -0.33560974 90.00095276 -0.3484198 90.96557617 -0.36161804 C97.30146119 -0.31051144 97.30146119 -0.31051144 100.4631958 2.05154419 C102.87922073 5.54116883 103.04760778 7.57030418 103.07522583 11.8026886 C103.08483337 12.9876442 103.09444092 14.17259979 103.1043396 15.39346313 C103.10858948 16.67988205 103.11283936 17.96630096 103.11721802 19.29170227 C103.12291809 20.6087767 103.12861816 21.92585114 103.13449097 23.28283691 C103.14500127 26.07461432 103.1508434 28.86636294 103.15432739 31.65815735 C103.15980537 35.22928995 103.18381778 38.80003995 103.21229935 42.37105274 C103.23544834 45.78209522 103.23737721 49.1930853 103.24221802 52.60420227 C103.25456482 53.88454849 103.26691162 55.16489471 103.27963257 56.48403931 C103.27663147 57.67845139 103.27363037 58.87286346 103.27053833 60.10346985 C103.27600677 61.67660698 103.27600677 61.67660698 103.28158569 63.28152466 C102.85048948 66.64314074 101.9738925 68.46796545 99.91409302 71.14717102 C97.10950758 72.85370232 95.00966579 73.3984649 91.7462616 73.40786743 C90.51197166 73.41849464 90.51197166 73.41849464 89.25274658 73.42933655 C88.35861053 73.42685913 87.46447449 73.42438171 86.54324341 73.42182922 C85.59484085 73.42694016 84.64643829 73.43205109 83.66929626 73.43731689 C80.53338312 73.45122008 77.39768957 73.45025559 74.26174927 73.44795227 C72.0822593 73.45183873 69.90277009 73.45617329 67.72328186 73.4609375 C63.15445501 73.46840123 58.58570543 73.46810725 54.01687622 73.46284485 C48.16124172 73.4570493 42.30592343 73.47398271 36.45034122 73.49718952 C31.9490626 73.51191905 27.44786027 73.51279963 22.94656181 73.50967979 C20.78759573 73.51019337 18.62862542 73.51543795 16.46968269 73.52549171 C13.45102493 73.53782379 10.43298498 73.53108366 7.41433716 73.51948547 C6.07616943 73.53095108 6.07616943 73.53095108 4.71096802 73.54264832 C-0.00408719 73.50259299 -3.3357624 73.33512775 -7.08590698 70.14717102 C-9.35053429 66.96555253 -9.3435986 64.10148112 -9.36056519 60.26460266 C-9.3700972 59.07979813 -9.37962921 57.89499359 -9.38945007 56.67428589 C-9.38853867 55.39818954 -9.38762726 54.1220932 -9.38668823 52.80732727 C-9.39311592 50.83596046 -9.39311592 50.83596046 -9.39967346 48.82476807 C-9.4071267 46.04490624 -9.40685098 43.26517143 -9.40158081 40.48530579 C-9.39578742 36.92988974 -9.41271766 33.37499486 -9.43592548 29.81966496 C-9.45423414 26.41969744 -9.45047695 23.0198438 -9.44918823 19.61982727 C-9.45839798 18.34575516 -9.46760773 17.07168304 -9.47709656 15.75900269 C-9.47086777 14.57104599 -9.46463898 13.38308929 -9.45822144 12.15913391 C-9.45885086 11.11640823 -9.45948029 10.07368256 -9.46012878 8.99935913 C-9.02746982 5.70178331 -8.04043468 3.81557771 -6.08590698 1.14717102 C-3.80598192 0.00720849 -2.5333991 0.01452931 0 0 Z " fill="#000000" transform="translate(209.08590698242188,174.8528289794922)"/>
<path d="M0 0 C1.14533203 -0.01611328 2.29066406 -0.03222656 3.47070312 -0.04882812 C5.12295898 -0.04979492 5.12295898 -0.04979492 6.80859375 -0.05078125 C7.81591553 -0.05376221 8.8232373 -0.05674316 9.86108398 -0.05981445 C12.97961551 0.36998768 14.32620453 1.1262206 16.5625 3.3125 C18.13057477 8.01672431 17.82959874 12.75994981 17.875 17.6875 C17.90400391 18.7290625 17.93300781 19.770625 17.96289062 20.84375 C17.97126953 21.85179687 17.97964844 22.85984375 17.98828125 23.8984375 C18.00286377 24.8167334 18.01744629 25.7350293 18.0324707 26.68115234 C17.39722541 30.23786596 16.18707964 31.85108542 13.5625 34.3125 C10.78515625 34.92773438 10.78515625 34.92773438 7.625 34.90625 C6.48289062 34.90367187 5.34078125 34.90109375 4.1640625 34.8984375 C2.97554688 34.87007813 1.78703125 34.84171875 0.5625 34.8125 C-1.22027344 34.81636719 -1.22027344 34.81636719 -3.0390625 34.8203125 C-12.97382436 34.708182 -12.97382436 34.708182 -16.4375 31.3125 C-17.96414487 26.7325654 -17.6219271 22.17178972 -17.625 17.375 C-17.63724609 16.37275391 -17.64949219 15.37050781 -17.66210938 14.33789062 C-17.66404297 13.37173828 -17.66597656 12.40558594 -17.66796875 11.41015625 C-17.67207764 10.52851807 -17.67618652 9.64687988 -17.68041992 8.73852539 C-17.41561363 6.09392228 -16.88084791 4.53504551 -15.4375 2.3125 C-10.67755468 -0.86079688 -5.59576653 -0.015692 0 0 Z " fill="#000000" transform="translate(345.4375,289.6875)"/>
<path d="M0 0 C1.14984375 -0.02900391 2.2996875 -0.05800781 3.484375 -0.08789062 C4.59039062 -0.09626953 5.69640625 -0.10464844 6.8359375 -0.11328125 C8.35646729 -0.13515503 8.35646729 -0.13515503 9.90771484 -0.1574707 C13.33449718 0.43521178 14.46678965 1.64959188 16.625 4.3125 C18.5499866 8.16247321 17.85337952 12.8900888 17.875 17.125 C17.895625 18.12337891 17.91625 19.12175781 17.9375 20.15039062 C17.98690603 29.42019618 17.98690603 29.42019618 14.625 33.3125 C10.27912178 35.48543911 4.52347623 34.63134146 -0.25 34.6875 C-1.44753906 34.72488281 -2.64507812 34.76226562 -3.87890625 34.80078125 C-5.03003906 34.81238281 -6.18117187 34.82398438 -7.3671875 34.8359375 C-8.95055908 34.8656665 -8.95055908 34.8656665 -10.56591797 34.89599609 C-13.375 34.3125 -13.375 34.3125 -15.71948242 32.11376953 C-17.52033952 29.06657379 -17.87825685 27.46932426 -17.87109375 23.96875 C-17.87173828 22.96972656 -17.87238281 21.97070312 -17.87304688 20.94140625 C-17.85306641 19.90886719 -17.83308594 18.87632812 -17.8125 17.8125 C-17.82313477 16.26369141 -17.82313477 16.26369141 -17.83398438 14.68359375 C-17.75455037 5.21261681 -17.75455037 5.21261681 -14.375 1.3125 C-10.15358817 -0.79820592 -4.63815515 0.03873738 0 0 Z " fill="#000000" transform="translate(166.375,289.6875)"/>
<path d="M0 0 C1.14146484 -0.03738281 2.28292969 -0.07476562 3.45898438 -0.11328125 C8.2721821 -0.16391688 11.66948987 -0.17983385 15.94140625 2.1484375 C18.63971254 7.13456947 18.41237293 11.79543222 18.3125 17.375 C18.33183594 18.45523437 18.35117187 19.53546875 18.37109375 20.6484375 C18.34253881 25.27433737 18.16932115 28.49184008 15.93359375 32.58984375 C10.80718394 35.40906069 5.87473857 35.05858157 0.125 34.9375 C-1.01130859 34.94845703 -2.14761719 34.95941406 -3.31835938 34.97070312 C-11.68645431 34.89664919 -11.68645431 34.89664919 -14.60522461 32.46459961 C-18.32594314 27.91066997 -17.53358551 23.22612583 -17.5625 17.5625 C-17.583125 16.56412109 -17.60375 15.56574219 -17.625 14.53710938 C-17.67440603 5.26730382 -17.67440603 5.26730382 -14.3125 1.375 C-10.09737588 -0.73256206 -4.63132995 0.05695319 0 0 Z " fill="#000000" transform="translate(345.3125,238.625)"/>
<path d="M0 0 C1.70446289 -0.01643555 1.70446289 -0.01643555 3.44335938 -0.03320312 C11.81145431 0.04085081 11.81145431 0.04085081 14.73022461 2.47290039 C18.45094314 7.02683003 17.65858551 11.71137417 17.6875 17.375 C17.708125 18.37337891 17.72875 19.37175781 17.75 20.40039062 C17.79940603 29.67019618 17.79940603 29.67019618 14.4375 33.5625 C10.22237588 35.67006206 4.75632995 34.88054681 0.125 34.9375 C-1.58719727 34.99357422 -1.58719727 34.99357422 -3.33398438 35.05078125 C-8.1471821 35.10141688 -11.54448987 35.11733385 -15.81640625 32.7890625 C-18.51471254 27.80293053 -18.28737293 23.14206778 -18.1875 17.5625 C-18.20683594 16.48226562 -18.22617188 15.40203125 -18.24609375 14.2890625 C-18.21753881 9.66316263 -18.04432115 6.44565992 -15.80859375 2.34765625 C-10.68218394 -0.47156069 -5.74973857 -0.12108157 0 0 Z " fill="#000000" transform="translate(166.5625,238.4375)"/>
<path d="M0 0 C1.19753906 -0.03738281 2.39507812 -0.07476562 3.62890625 -0.11328125 C4.78003906 -0.12488281 5.93117188 -0.13648438 7.1171875 -0.1484375 C8.70055908 -0.1781665 8.70055908 -0.1781665 10.31591797 -0.20849609 C13.125 0.375 13.125 0.375 15.46948242 2.57373047 C17.27033952 5.62092621 17.62825685 7.21817574 17.62109375 10.71875 C17.62173828 11.71777344 17.62238281 12.71679688 17.62304688 13.74609375 C17.60306641 14.77863281 17.58308594 15.81117188 17.5625 16.875 C17.56958984 17.90753906 17.57667969 18.94007813 17.58398438 20.00390625 C17.50455037 29.47488319 17.50455037 29.47488319 14.125 33.375 C9.90358817 35.48570592 4.38815515 34.64876262 -0.25 34.6875 C-1.39984375 34.71650391 -2.5496875 34.74550781 -3.734375 34.77539062 C-4.84039062 34.78376953 -5.94640625 34.79214844 -7.0859375 34.80078125 C-8.09962402 34.81536377 -9.11331055 34.82994629 -10.15771484 34.8449707 C-13.58449718 34.25228822 -14.71678965 33.03790812 -16.875 30.375 C-18.7999866 26.52502679 -18.10337952 21.7974112 -18.125 17.5625 C-18.145625 16.56412109 -18.16625 15.56574219 -18.1875 14.53710938 C-18.23690603 5.26730382 -18.23690603 5.26730382 -14.875 1.375 C-10.52912178 -0.79793911 -4.77347623 0.05615854 0 0 Z " fill="#000000" transform="translate(345.875,187.625)"/>
<path d="M0 0 C1.14210937 0.00257813 2.28421875 0.00515625 3.4609375 0.0078125 C4.64945313 0.03617188 5.83796875 0.06453125 7.0625 0.09375 C8.84527344 0.08988281 8.84527344 0.08988281 10.6640625 0.0859375 C20.59882436 0.198068 20.59882436 0.198068 24.0625 3.59375 C25.58914487 8.1736846 25.2469271 12.73446028 25.25 17.53125 C25.26224609 18.53349609 25.27449219 19.53574219 25.28710938 20.56835938 C25.28904297 21.53451172 25.29097656 22.50066406 25.29296875 23.49609375 C25.29707764 24.37773193 25.30118652 25.25937012 25.30541992 26.16772461 C25.04061363 28.81232772 24.50584791 30.37120449 23.0625 32.59375 C18.30255468 35.76704688 13.22076653 34.921942 7.625 34.90625 C5.90700195 34.93041992 5.90700195 34.93041992 4.15429688 34.95507812 C2.50204102 34.95604492 2.50204102 34.95604492 0.81640625 34.95703125 C-0.19091553 34.96001221 -1.1982373 34.96299316 -2.23608398 34.96606445 C-5.35461551 34.53626232 -6.70120453 33.7800294 -8.9375 31.59375 C-10.50557477 26.88952569 -10.20459874 22.14630019 -10.25 17.21875 C-10.27900391 16.1771875 -10.30800781 15.135625 -10.33789062 14.0625 C-10.34626953 13.05445313 -10.35464844 12.04640625 -10.36328125 11.0078125 C-10.37786377 10.0895166 -10.39244629 9.1712207 -10.4074707 8.22509766 C-9.29877975 2.0175802 -6.01880872 -0.04091897 0 0 Z " fill="#000000" transform="translate(158.9375,187.40625)"/>
<path d="M0 0 C3.88844331 2.60148807 5.72863262 6.11259718 7.125 10.5 C7.95766907 16.32868348 6.48776523 20.76950458 3.125 25.5 C-2.14079782 29.69114521 -6.17382928 30.95431666 -12.875 30.5 C-18.55049553 28.45682161 -22.17373721 24.90252559 -24.875 19.5 C-25.39348559 14.29814462 -25.49518013 9.86439629 -23.3125 5.0625 C-16.91238929 -1.66582151 -8.72290881 -4.19298621 0 0 Z " fill="#000000" transform="translate(200.875,10.5)"/>
<path d="M0 0 C4.23301121 2.82200747 7.17159664 5.95228992 8.8125 10.875 C9.39952511 16.86265615 8.18381767 21.00297039 4.8125 25.875 C1.13882044 29.45907762 -1.76987316 30.14515703 -6.75 30.3125 C-11.02415051 30.13875404 -13.87980404 29.78176312 -17.1875 26.875 C-21.80334871 21.6180612 -22.53578926 18.53114164 -22.47265625 11.640625 C-21.9764048 6.8276657 -19.64935415 4.15965971 -16.125 1.0625 C-11.01898681 -2.06699196 -5.47152637 -1.93112695 0 0 Z " fill="#000000" transform="translate(139.1875,36.125)"/>
</svg>
