<?xml version="1.0" encoding="utf-8"?>
<!-- Generator: Adobe Illustrator 27.3.1, SVG Export Plug-In . SVG Version: 6.00 Build 0)  -->
<svg version="1.1" id="Layer_2" xmlns="http://www.w3.org/2000/svg" xmlns:xlink="http://www.w3.org/1999/xlink" x="0px" y="0px"
	 viewBox="0 0 612 398" style="enable-background:new 0 0 612 398;" xml:space="preserve">
<style type="text/css">
	.st0{fill:none;stroke:#000000;stroke-width:0.0253;stroke-miterlimit:10;}
	.st1{fill:none;stroke:#000000;stroke-width:0.0264;stroke-miterlimit:10;}
	.st2{fill:none;stroke:#000000;stroke-width:0.0413;stroke-miterlimit:10;}
	.st3{fill:#9779A6;}
	.st4{fill:#5C2E75;}
	.st5{fill:#231F20;}
</style>
<g>
	<path class="st0" d="M325.42-407.42c4.08,0,11.67,0.33,13.42,6.75c1.75,6.42,0.75,9.08,11,12.83S385.5-373.24,395-331
		c2.25,10,4.75,22,5.75,26.25s5.5,11.5,12.25,18.75s21.06,16.25,21.5,24c0.5,8.75-1.48,46-113.75,46
		c-79.25,0-125.16-34.77-120.25-49.75c7.67-23.42,54.5-36.83,121.25-38.67c0.88-0.02,1-1.28,0.14-1.48
		c-8.39-1.91-35.11-4.58-87.31,3.06c0,0,4.79-11.54,8.67-25.54s14.08-45.88,42.38-58.38c8.86-3.91,15.33-4.17,16.54-9.58
		c1.09-4.88,3.08-9.92,11.58-10.92S325.42-407.42,325.42-407.42z"/>
	<path class="st1" d="M317.3-224.79c59.11,1.33,84.7-13.29,87.37-24.71c2.78-11.89-38.94-22.33-87.56-22.71
		c-48.69-0.38-86.94,8.87-86.94,19.79C230.17-244.5,267.1-225.92,317.3-224.79z"/>
	<g>
		<path class="st2" d="M260.28-260.61c3.21,11.96,14.37,20.79,27.64,20.79c15.4,0,27.94-11.88,28.55-26.75
			C285.96-267.29,266.01-262.28,260.28-260.61z"/>
	</g>
</g>
<g>
	<g>
		<g>
			<g>
				<g>
					<path class="st3" d="M308.17,36L308.17,36c-17.7,0-34.46,3.99-49.46,11.11c3.37-1.11,7.62-0.94,10.37,2.47
						c4.5,5.58,4.58,6.75,15.83,4.75c10.75-1.91,38.32-2.54,66.92,27.83c7.03,7.46,16.05,16.78,19,20s8.72,7.75,19.07,10.4
						c9.52,2.44,23.68,2.1,30.06,9.8C407.05,72.68,361.89,36,308.17,36z"/>
				</g>
			</g>
			<g>
				<path class="st4" d="M300.71,139.8c-8.25,2.44-32.86,13.18-74.64,45.39c0,0-1.47-12.41-4.94-26.52
					c-3.47-14.11-11.41-47.88,8.39-71.64c7.32-8.78,10.48-10.71,8.9-16.03c-1.17-3.92-3.67-7.5,2.83-13.42
					c-29.17,20.25-48.58,54.07-48.58,93.92v89.87c0,2.01,1.63,3.63,3.63,3.63h32.62c-9.46-2.22-13.46-6.7-14.33-11.33
					c-4.33-23,29.17-59.25,86.73-92.51C302.07,140.71,301.55,139.55,300.71,139.8z"/>
			</g>
			<g>
				<path class="st4" d="M343.7,218.75c-26.35,15.23-51.3,22.9-71.91,26.25h148.24c2.01,0,3.63-1.63,3.63-3.63V151.5
					c0-2.26-0.07-6.02-0.2-8.25C417.08,159.58,401.25,185.5,343.7,218.75z"/>
			</g>
			<g>
				<g>
					<path class="st4" d="M400.17,147.42c-3.4-11.73-42.92-0.67-87.15,24.1c-42.48,23.79-71.17,50.11-66.13,59.8
						c3.95,7.6,45.37,5.4,89.5-18.54C388.5,184.5,403.43,158.68,400.17,147.42z M303.42,214.04c-11.58,6.49-25.63,4.26-34.28-4.6
						c4.17-4.25,19.12-18.39,46.09-32.69C321.98,190.01,316.85,206.5,303.42,214.04z"/>
				</g>
			</g>
		</g>
	</g>
	<g>
		<polygon class="st5" points="115.12,283.67 56,283.67 56,298.33 77.08,298.33 77.08,352.83 93.92,352.83 93.92,298.33 
			115.12,298.33 		"/>
		<polygon class="st5" points="448.8,298.33 448.8,283.67 397.08,283.67 397.08,352.83 448.8,352.83 448.8,338.17 413.92,338.17 
			413.92,324.93 442.86,324.93 442.86,310.92 413.92,310.92 413.92,298.33 		"/>
		<polygon class="st5" points="474.75,338.17 474.75,283.67 457.92,283.67 457.92,352.83 505,352.83 505,338.17 		"/>
		<polygon class="st5" points="529.58,338.17 529.58,283.67 512.75,283.67 512.75,352.83 559.83,352.83 559.83,338.17 		"/>
		<path class="st5" d="M155.25,352.83h18.87l-28.75-69.17h-13.62l-29.12,69.17h17.75l3.67-10.15h27.76L155.25,352.83z
			 M129.09,328.73l9.26-25.63l8.71,25.63H129.09z"/>
		<path class="st5" d="M271.86,282.77c-19.63,0-35.54,15.95-35.54,35.62c0,19.67,15.91,35.62,35.54,35.62s35.54-15.95,35.54-35.62
			C307.39,298.72,291.48,282.77,271.86,282.77z M271.95,338.68c-9.92,0-17.96-7.43-17.96-20.17c0-12.88,8.04-20.17,17.96-20.17
			c9.92,0,17.96,9.03,17.96,20.17S281.87,338.68,271.95,338.68z"/>
		<g>
			<path class="st5" d="M206.92,338.68c-10.06,0-18.22-7.43-18.22-20.17c0-12.88,8.16-20.17,18.22-20.17
				c5.56,0,10.53,2.77,13.88,7.12l13.76-9.82c-6.61-7.86-16.58-12.87-27.74-12.87c-22.32,0-35.57,15.95-35.57,35.62
				c0,21.36,15.66,35.62,35.57,35.62c11.73,0,22.15-4.39,28.74-12.7l-14.24-10.14C217.98,335.87,212.78,338.68,206.92,338.68z"/>
		</g>
		<path class="st5" d="M374.88,315.62c6.38-2.88,9.88-7.5,9.88-15c0-11.62-10.87-16.96-21.87-16.96h-28.75v69.17l30.63-0.03
			c12,0,25.37-4.43,25.37-18.18S381.62,317.12,374.88,315.62z M349.81,297.12h11.68c3.87,0,7.01,3.14,7.01,7.01
			s-3.14,7.01-7.01,7.01h-11.68V297.12z M366.41,338.51h-16.6v-14.58H364c5.56,0,9.53,2.75,9.53,7.46
			C373.53,335.33,370.34,338.51,366.41,338.51z"/>
		<g>
			<path class="st5" d="M564.48,338.26h5.15v0.73h-2.12v6.54h-0.91v-6.54h-2.12V338.26z"/>
			<path class="st5" d="M576.03,338.26h1.37v7.27h-0.91v-5.99l-1.99,4.49h-1.08l-1.96-4.47v5.97h-0.91v-7.27h1.34
				c0,0,2,4.18,2.04,4.64h0.02C574.03,342.54,576.03,338.26,576.03,338.26z"/>
		</g>
	</g>
</g>
</svg>
